<mxfile host="app.diagrams.net" modified="2024-05-26T22:12:17.598Z" agent="Mozilla/5.0 (Windows NT 10.0; Win64; x64) AppleWebKit/537.36 (KHTML, like Gecko) Chrome/125.0.0.0 Safari/537.36" etag="iq7Ax8nbmbusBxaUOFcV" version="24.4.8" type="github">
  <diagram name="Page-1" id="zuhQkFO9fgSmTVKcTVLM">
    <mxGraphModel dx="794" dy="454" grid="1" gridSize="10" guides="1" tooltips="1" connect="1" arrows="1" fold="1" page="1" pageScale="1" pageWidth="850" pageHeight="1100" math="0" shadow="0">
      <root>
        <mxCell id="0" />
        <mxCell id="1" parent="0" />
        <mxCell id="cQwfHmocI9U_DyVpqtuw-1" value="" style="rounded=0;whiteSpace=wrap;html=1;" parent="1" vertex="1">
          <mxGeometry x="118" y="160" width="600" height="480" as="geometry" />
        </mxCell>
        <mxCell id="cQwfHmocI9U_DyVpqtuw-9" value="" style="rounded=0;whiteSpace=wrap;html=1;" parent="1" vertex="1">
          <mxGeometry x="118" y="600" width="599" height="40" as="geometry" />
        </mxCell>
        <mxCell id="cQwfHmocI9U_DyVpqtuw-10" value="Footer for the company like copyright, terms policy, contact, etc." style="rounded=1;whiteSpace=wrap;html=1;fillColor=#e1d5e7;strokeColor=#9673a6;" parent="1" vertex="1">
          <mxGeometry x="118" y="600" width="600" height="40" as="geometry" />
        </mxCell>
        <mxCell id="cQwfHmocI9U_DyVpqtuw-11" value="&lt;font style=&quot;font-size: 16px;&quot;&gt;Dashboard&lt;/font&gt;" style="rounded=0;whiteSpace=wrap;html=1;fillColor=#dae8fc;strokeColor=#6c8ebf;" parent="1" vertex="1">
          <mxGeometry x="118" y="160" width="600" height="40" as="geometry" />
        </mxCell>
        <mxCell id="cQwfHmocI9U_DyVpqtuw-16" value="&lt;span style=&quot;font-family: &amp;quot;Google Sans&amp;quot;, arial, sans-serif; text-align: left; background-color: rgb(255, 255, 255);&quot;&gt;&lt;font style=&quot;font-size: 25px;&quot;&gt;â‰¡&lt;/font&gt;&lt;/span&gt;" style="rounded=0;whiteSpace=wrap;html=1;" parent="1" vertex="1">
          <mxGeometry x="118" y="160" width="52" height="40" as="geometry" />
        </mxCell>
      </root>
    </mxGraphModel>
  </diagram>
</mxfile>
